# xmcd
#
# Track frame offsets:
#	150
#	24219
#	42660
#	64155
#	97313
#
# Disc length: 1573 seconds
#
# Revision: 0
# Processed by: cddbd v1.5.2PL0 Copyright (c) Steve Scherf et al.
# Submitted via: EasyCDDAExtractor 16.1.0.1
#
DISCID=41062305
DTITLE=Various Artist - Extravaganza!
DYEAR=1900
DGENRE=
TTITLE0=Recado bossa
TTITLE1=Moscow windows
TTITLE2=Blue bossa
TTITLE3=What a wonderful world
TTITLE4=Sunny
EXTD=
EXTT0=
EXTT1=
EXTT2=
EXTT3=
EXTT4=
PLAYORDER=
